<mxfile host="app.diagrams.net" modified="2022-06-10T02:56:16.501Z" agent="5.0 (Windows NT 10.0; Win64; x64) AppleWebKit/537.36 (KHTML, like Gecko) Chrome/101.0.4951.67 Safari/537.36" etag="Lu3f41lUhwVpe3KDKH1V" version="17.4.5" type="github">
  <diagram id="C5RBs43oDa-KdzZeNtuy" name="Page-1">
    <mxGraphModel dx="595" dy="762" grid="1" gridSize="10" guides="1" tooltips="1" connect="1" arrows="1" fold="1" page="1" pageScale="1" pageWidth="827" pageHeight="1169" math="0" shadow="0">
      <root>
        <mxCell id="WIyWlLk6GJQsqaUBKTNV-0" />
        <mxCell id="WIyWlLk6GJQsqaUBKTNV-1" parent="WIyWlLk6GJQsqaUBKTNV-0" />
        <mxCell id="c4rweKqOvg5NlRM6L5RU-36" value="" style="rounded=1;whiteSpace=wrap;html=1;shadow=0;sketch=0;verticalAlign=middle;" vertex="1" parent="WIyWlLk6GJQsqaUBKTNV-1">
          <mxGeometry x="1140" y="442.5" width="570" height="367.5" as="geometry" />
        </mxCell>
        <mxCell id="c4rweKqOvg5NlRM6L5RU-20" value="" style="rounded=1;whiteSpace=wrap;html=1;shadow=0;sketch=0;fillColor=#ffffff;gradientColor=#ffffff;verticalAlign=middle;" vertex="1" parent="WIyWlLk6GJQsqaUBKTNV-1">
          <mxGeometry x="1160" y="480.91" width="220" height="130" as="geometry" />
        </mxCell>
        <mxCell id="c4rweKqOvg5NlRM6L5RU-21" value="" style="shape=crossbar;whiteSpace=wrap;html=1;rounded=1;direction=south;shadow=0;sketch=0;gradientColor=#ffffff;verticalAlign=middle;fillColor=#FFCCCC;" vertex="1" parent="WIyWlLk6GJQsqaUBKTNV-1">
          <mxGeometry x="1180" y="489.91" width="20" height="80" as="geometry" />
        </mxCell>
        <mxCell id="c4rweKqOvg5NlRM6L5RU-22" value="N" style="text;html=1;align=center;verticalAlign=middle;whiteSpace=wrap;rounded=0;shadow=0;sketch=0;" vertex="1" parent="WIyWlLk6GJQsqaUBKTNV-1">
          <mxGeometry x="1160.8799999999999" y="520.03" width="40" height="20" as="geometry" />
        </mxCell>
        <mxCell id="c4rweKqOvg5NlRM6L5RU-23" value="" style="shape=crossbar;whiteSpace=wrap;html=1;rounded=1;shadow=0;sketch=0;fillColor=#ffffff;gradientColor=#ffffff;verticalAlign=middle;" vertex="1" parent="WIyWlLk6GJQsqaUBKTNV-1">
          <mxGeometry x="1210" y="580.9100000000001" width="148" height="20" as="geometry" />
        </mxCell>
        <mxCell id="c4rweKqOvg5NlRM6L5RU-24" value="T" style="text;html=1;strokeColor=none;fillColor=none;align=center;verticalAlign=middle;whiteSpace=wrap;rounded=0;shadow=0;sketch=0;" vertex="1" parent="WIyWlLk6GJQsqaUBKTNV-1">
          <mxGeometry x="1264" y="590.9100000000001" width="40" height="20" as="geometry" />
        </mxCell>
        <mxCell id="c4rweKqOvg5NlRM6L5RU-25" value="" style="shape=image;verticalLabelPosition=bottom;labelBackgroundColor=#ffffff;verticalAlign=top;aspect=fixed;imageAspect=0;image=data:image/png,iVBORw0KGgoAAAANSUhEUgAAAnUAAAFVCAMAAAHJatlbAAAAAXNSR0IArs4c6QAAAARnQU1BAACxjwv8YQUAAAEFUExURQAAAAAAAAAAAAAAAAAAAAAAAAAAAAAAAAAAAAAAAAAAAAAAAAAAAAAAAAEBAQICAgMDAwQEBAUFBQYGBgcHBwgICAkJCQoKCgsKCgsLCwwMDA8PDxAQEBERERMTExQUFBcXFxgYGBoYGBoZGRwcHB0dHR4eHh8fHyAgICEfHyEhISMjIyUlJSkpKSoqKisrKy8sLDAwMDMzMzs4OD09PUBAQEFBQUZGRkhHR0tKSktLS09PT1NTU2ZmZm1tbXR0dHV1dXp6ent7e39/f4GBgYqKipSUlJeVlZ6cnJ6enqenp66urq+vr7a2tru7u8PDw8fFxcfHx9DOztDQ0NTU1N3d3efn5wZvei0AAAANdFJOUwALFUVZd6PN0tfc3d4BYfbaAAAACXBIWXMAABcRAAAXEQHKJvM/AAALx0lEQVR4Xu3d+3scBRXG8ZVLAe2QQLXIpSKKQLEqclO0tvaCVi23Yvz//xR3z3k3zTIzac97mnm2eb6fH5h9pnOmh7dv0iTdZFerZ5+o1YX/nXBXx3Bfx3D02Uk6mT45ifsd437HdDLpTukpu99wkk6GIx0fhfs9pJOB+03b//t9c8IN3SnpZPhax0f5wX46ht23Xx2TfsOkc4n7HeN+x3SnpHPpKbvfgxPu6WQ4unOSTk7gfse43zGdnLD/9zs64fa3J/xTJ8N/b52kkxOe9KdbK+35KPrANOlc0gemifvN0J2SziXdKXG/GbpT0rmkO6Uzvp/+Bkw6V8L9HtK5Eu73kM6VPPn76fOkpDslnSv5wX6PSb9h0rnE/R6H7pR0LnG/x6E7JZ1LZ3w/fWSadC7pA9OkcxO430M6l3SnpHMTuN9DOpd0p6RzE578/fR5UtJnWknnkj7RSjo3YbX7+eCOnS+e7Nj5SsqO3S/z79AVE/Sx6ATW29IVE7TLBNbb0hUTtMsE1tvSFRO0ywTW29IVE7TLhP1f76s5f9Nx7Esdx/7z8SxdMeGjWaemp486J+iKsd1/K2hjvQ7W62C9DtbreJrX03HslL9zdZyg/7MJumAC621plwm6YALrbWmXCbpgAuttaZcJumAC621plwm6YML+r/f9nJs6jv1Lx7HvdJygXSboggmnpqevQ47tPBNkx+7TQnboihLW29IVJay3pStKWG9LV5Sw3pauKNn79facnt1X8pyOY8/rOGb9ymr+w5LrOo5d03Fs0Bdqx+Y/LBn0hdqxge0C2yW222C7xHaJ7TbYLrFdYrsNtktsl5bbbv6pFZ/rOPYbHccGPcNibNAVY4OeYTF2Wnb6KuWEU7LTccz6FbYLbJfYboPtEtsltttgu8R2ie022C6xXVpuuxv61tkxrTLhfV0xNv9du9avnJKd9RmjjmP6H5uiK8bYLmmTKbpijO2SNpmiK8bYLmmTKbpijO2SNpmiK8bYLmmTKbpijO2SNpmiK8bYLmmTKbpijO2SNpmiK8bYLmmTKbpibN+3m3/u+F90HPtQx7H5Z4hrkym6Yuy07L7QcxXHTslOT1UcOyUhHcfYLrFdYrsNtktsl9hug+0S2yW222C7xHZpue1u68fSjf1ZP+Ru7Le6YmzQj78bG3TF2Cm/ou892lcvvPOHsnfe3Pz39yUf/FQPCn43vFE3aLhi+Hnd+g/2wvybxay7818mmHV//k1p1tH800jnzb+RzZt/6uk8sktkl8gukF0iu0R2a2SXyC6RXSC7RHaJ7NbILpFdIrtAdonsEtmtkV0iu0R2gezSeczuxSvvlV3R0/pKXtVwwbuDHlQsNmP2TnGUWL3Tg4rFZsgukF0iu0B2QnaB7NbILpFdIrtAdkJ2gezWyC6RXSK7QHZCdoHs1sgukV0iu0B2cg6ze+nyW2WXL+lBwRuHelAx6FihP6oazVa4vVvs3xj1oEJp1Gi2guxEsxVkJ5qtIDvRbAXZiWYryE40W0F2otkKshPNVpCdaLaC7ESzFWQnmq0gO9FsBdmJZivITjRbQXai2QqyE81WkJ1otoLsRLMVZCearSA70WzFOrufHLxSdvDyYdnByxouOBwO6gYNV1gzZu/mf+jhrHtW7/RjESusDulYQXaJ7BLZBbJLZJfIbo3sEtklsgtkl8gukd0a2SWyS2QXyC6RXSK7NbJLZJfILpBdOo/ZXdS/FKFqtXr+2bp9nnlOxzO3Wg3xwk81OaOXWHpM1qs3va6Xfio4+EDDBW9e0ks/FVx6YbXYOwcdK4ZP9VMoC167r+GC61f1UygLrl4gujWiC0QXiC4QXSA6ohOiC0QXiC4QXSA6ohOiC0QXiC4QXSA6ohOiC0QXiC4QXSA6ohOiC0QXiC4QXSA6ohOiC0QXiC4QXSA6ohOiC0QXiC4QXSA6ohOiC0QXiC6cx+i+qlts5o8fl/3sSw0XfP6rj8p+vY7uvTp9l1SNZiuGd/Wg4NVf6kHB61f0oODKi94brEOzFcORHhRcc95gne/PNN/XOTRbQXRJsxVElzRbQXRJsxVElzRbQXRJsxVElzRbQXRJsxVElzRbQXRJsxVElzRbQXRJsxVElzRbQXRJsxVElzRbQXRJsxVElzRbQXRJsxVElzRbQXRJsxVElzRbQXRJsxVElzRbQXRJsxVElzRbQXRJsxVElzRbQXRJsxVElzRbQXRJsxVElzRbQXRJsxVElzRbQXRJsxVElzRbQXRJsxVElzRbQXRJsxVElzRbse/RfVOnMGo0WzF8rQcF7/9DDwr+dEMPCm6so3urbp9nDvUnVXJZwwWXX/LeYHWsWOwNVmmULPi+TscKogtER3RbRLdBdIHoAtEFoiO6LaLbILpAdIHoAtER3RbRbRBdILpAdIHoiG6L6DaILhBdILpAdES3RXQbRBeILhBdIDqi2yK6DaILRBeILhAd0W0R3QbRBaILRBeIjui2iG5jyei+r1ts5js9KPhQaZTc1HDBzXV0r9QNh3XW73NQNxxquODlAz0oOPix9wb7oM76fW7dKXt7z78zUXFUEF0gOqITogtEF4guEF0gOqITogtEF4guEF0gOqITogtEF4guEF0gOqITogtEF4guEF0gOqITogtEF4guEF0gOqITogtEF4guEF0gOqITogtEF4guEF0gOqITogtLRndUN3xbZ/0+f79V9ot/a7jgr7f1oOD2Ojp4Lq5gu6gQgYWs314vON8Marg7XNejs3V/uKZHZ+toGD79bAmvDcbHDIbrw9VPlnB1uEDrXLTOROsaaJ2J1jXQOhOta6B1JlrXQOtMtK6B1ploXQOtM9G6BlpnonUNtM5E6xponYnWNdA6E61roHUmWtdA60y0roHWmWhdA60z0boGWmeidQ20zkTrGmididY10DoTrWugdSZa10DrTLSugdaZaF0DrTPRugZaZ6J1DbTOROsaaJ2J1jXQOhOta6B1JlrXQOtMtK6B1ploXQOtM9G6BlpnonUNtM5E6xponYnWNdA6E61roHUmWtdA60y0roHWmWhdA60z0boGWmeK1vHaOljYoq+ts5TF3tcd6eHZurbY+7qlirDo37BLoXUWWtdC6yy0roXWWWhdC62z0LoWWmehdS20zkLrWmidhda10DoLrWuhdRZa10LrLLSuhdZZaF0LrbPQuhZaZ6F1LbTOQutaaJ2F1rXQOguta6F1FlrXQusstK6F1lloXQuts9C6FlpnoXUttM5C61ponYXWtdA6C61roXUWWtdC6yy0roXWWWhdC62z0LoWWmehdS20zkLrWmidhda10DoLrWuhdRZa10LrLLSuhdZZaF0LrbPQuhZaZ6F1LbTOQutaaJ2F1rXQOsuireO1dbCwRV9b59y9jthS7+uWci7/hqV1FlrXQOtMtK6B1ploXQOtM9G6BlpnonUNtM5E6xponYnWNdA6E61roHUmWtdA60y0roHWmWhdA60z0boGWmeidQ20zkTrGmididY10DoTrWugdSZa10DrTLSugdaZaF0DrTPRugZaZ6J1DbTOROsaaJ2J1jXQOhOta6B1JlrXQOtMtK6B1ploXQOtM9G6BlpnonUNtM5E6xponYnWNdA6E61roHUmWtdA60y0roHWmWhdA60z0boGWmeidQ20zkTrGmididY10DrTuWwdr62DhS362jpfPFjCveXe1926s4S3efU6H60z0boGWmeidQ20zkTrGmididY10DoTrWugdSZa10DrTLSugdaZaF0DrTPRugZaZ6J1DbTOROsaaJ2J1jXQOhOta6B1JlrXQOtMtK6B1ploXQOtM9G6BlpnonUNtM5E6xponYnWNdA6E61roHUmWtdA60y0roHWmWhdA60z0boGWmeidQ20zkTrGmididY10DoTrWugdSZa10DrTLSugdaZaF0DrTPRugZaZ6J1DbTOROsaaJ2J1jXQOhOta6B1JlrXQOtMtK6B1pnOZet4bR0s7OJqtXrmR8s4d78PwXmeWa3+D+Uiycs2Cn36AAAAAElFTkSuQmCC;" vertex="1" parent="WIyWlLk6GJQsqaUBKTNV-1">
          <mxGeometry x="1210" y="489.91" width="148" height="80.23" as="geometry" />
        </mxCell>
        <mxCell id="c4rweKqOvg5NlRM6L5RU-26" value="&lt;b&gt;&lt;font style=&quot;font-size: 18px&quot;&gt;Nodes Infomation Matrix&lt;/font&gt;&lt;/b&gt;" style="text;html=1;strokeColor=none;fillColor=none;align=center;verticalAlign=middle;whiteSpace=wrap;rounded=0;shadow=0;sketch=0;" vertex="1" parent="WIyWlLk6GJQsqaUBKTNV-1">
          <mxGeometry x="1166.7399999999998" y="460" width="219.69" height="20" as="geometry" />
        </mxCell>
        <mxCell id="c4rweKqOvg5NlRM6L5RU-27" value="" style="rounded=1;whiteSpace=wrap;html=1;shadow=0;sketch=0;fillColor=#ffffff;gradientColor=#ffffff;verticalAlign=middle;" vertex="1" parent="WIyWlLk6GJQsqaUBKTNV-1">
          <mxGeometry x="1160.8799999999999" y="650.91" width="166.55" height="130" as="geometry" />
        </mxCell>
        <mxCell id="c4rweKqOvg5NlRM6L5RU-28" value="" style="shape=crossbar;whiteSpace=wrap;html=1;rounded=1;direction=south;shadow=0;sketch=0;gradientColor=#ffffff;verticalAlign=middle;fillColor=#FFCCCC;" vertex="1" parent="WIyWlLk6GJQsqaUBKTNV-1">
          <mxGeometry x="1179.9999999999998" y="660.41" width="20" height="80" as="geometry" />
        </mxCell>
        <mxCell id="c4rweKqOvg5NlRM6L5RU-29" value="N" style="text;html=1;strokeColor=none;fillColor=none;align=center;verticalAlign=middle;whiteSpace=wrap;rounded=0;shadow=0;sketch=0;" vertex="1" parent="WIyWlLk6GJQsqaUBKTNV-1">
          <mxGeometry x="1238.33" y="760.91" width="40" height="20" as="geometry" />
        </mxCell>
        <mxCell id="c4rweKqOvg5NlRM6L5RU-30" value="N" style="text;html=1;align=center;verticalAlign=middle;whiteSpace=wrap;rounded=0;shadow=0;sketch=0;" vertex="1" parent="WIyWlLk6GJQsqaUBKTNV-1">
          <mxGeometry x="1160" y="690.18" width="40" height="20" as="geometry" />
        </mxCell>
        <mxCell id="c4rweKqOvg5NlRM6L5RU-31" value="" style="shape=crossbar;whiteSpace=wrap;html=1;rounded=1;shadow=0;sketch=0;fillColor=#ffffff;gradientColor=#ffffff;verticalAlign=middle;" vertex="1" parent="WIyWlLk6GJQsqaUBKTNV-1">
          <mxGeometry x="1210.11" y="751.41" width="96.44" height="20" as="geometry" />
        </mxCell>
        <mxCell id="c4rweKqOvg5NlRM6L5RU-32" value="" style="shape=image;verticalLabelPosition=bottom;labelBackgroundColor=#ffffff;verticalAlign=top;aspect=fixed;imageAspect=0;image=data:image/png,iVBORw0KGgoAAAANSUhEUgAAAaUAAAFVCAMAAAEPmTATAAAAAXNSR0IArs4c6QAAAARnQU1BAACxjwv8YQUAAADbUExURQAAAAAAAAAAAAAAAAAAAAAAAAAAAAAAAAAAAAAAAAAAAAAAAAAAAAAAAAAAAAAAAAEBAQICAgMDAwQEBAUFBQYGBgkJCQsLCw8ODg8PDxAQEBERERMSEhUUFBYVFRcXFxgYGB0dHR4eHh8fHyAgICEhISMjIyUlJSoqKj09PUFBQUNDQ0REREZGRkdHR09PT1BQUFNTU1lVVVlZWV1ZWWZmZm1tbXFsbHR0dHZxcXp6en9/f4GBgYqKipSUlKenp6+vr7a2tru7u8PDw8fHx9DQ0NTU1N3d3efn56hgiP4AAAAPdFJOUwALEhU3RVl319nx9Pb4+aeRKqUAAAAJcEhZcwAAFxEAABcRAcom8z8AAAdsSURBVHhe7d17dxNlFMXhqfWC1ykVQQQFtIpyKSAXkTsi4vf/RDbnnJcMzCR6zq6zssLv+aez0nnnzF47bdM0nXTdBwXdzu9Df/83rBra3lWxkcKqoe1d9aLgrVn9UNzmbg+xaugdWfWGh0Nxm2PV0PauerXSg6G4zdUeEHXxQ9LFCfwbVg1t76rYSGHV0Pauisc4KW/Nih+SLm5z8UPSsWroHVn1hvgh6eI2x6qh7V0Vj3EmxEMhF7e57q3nAd4QRz4mjBIxSsQo0dGoOys9P1ZHo2Lo/45RIkaJGCVaOyoeVk+IHSbEA+4JjBqIHSbEcScwaiB2mBDHncCogdhhQhx3wtGolyvFcSfEDhNurrQ21WrxC96E2GECowbiuBNihwmMGojjTogdJjBqII47IXaY0M3po/jz1tgxf6br45fRsdXfvkufYVJgkmNSwyTHpIZJjknNxk+KZ5rH+njWeKz0me6Yzzw+jjGpYZJjUsMkx6SGSY5JzcZPihf1jR3zZ9ZlWi32GOvjmfIxJr0We4wxqYmjTok9xpjUxFGnxB5jTGriqFNijzEmNXHUKbHHGJOaOOqU2GNsQybFn7TH4qhTYo+xPv4MPrY2U3wc6+NPaGNr1jApMMkxqWGSY1LDJMekZuMnxb8yja35TPwv1NiaNfG6mTns9N/l9T/nzbZmkSn+LJixuvjVZltDptfI5MjkyOTItEQmRyZHJkemJTI5MjkyOTItkcmRyZUzfZ+30WsWmSJfxsb3FNsZZHJkcmRyZFoikyOTI5Mj0xKZHJkcmRyZlsjkyOTI5CzTN3nxouKcWJvRf5VX7qki1masfmn3amRairPMibUZZHJkWoqzzIm1GWRyZFqKs8yJtRlkcmRairPMibUZZHJkWoqzzIm1GWRyZFqKs8yJtRlkclua6b3+y7zSmpN5pTnVnuJjxup/OVutNIdMr5HJkcmRyZFpiUyOTI5MjkxLZHJkcmRyZFoikyOTK2bajWd1tse6939a7cP4uJHe7/pv41I4CfsHcYmahLMXYyPh4tnYSDj4pOt/i/+mSzj/LO65CbcexUbCo1uxkfDsBJEckQyRDJEMkRoiGSIZIhkiNUQyRDJEMkRqiGSIZIhkiNQQyRDJEMkQqSGSIZIhkiFSQyRDJEMkQ6SGSIZIphrp1ztpXz9+nnblbmwk3L0SGwmPP+76S3Gh3oRTF2Ij4cy52Eg4dyY2Ei582vWvorGEyxt+xyPSApEMkQyRDJEaIhkiGSIZIjVEMkQyRDJEaohkiGSIZIjUEMkQyRDJEKkhkiGSIZIhUkMkQyRDJEOkhkiGSKYa6Y8XaT88iY2E6/diI+He9dhIeHIU6Wy8LVLCflxMJuV0LE44fTLefinh1Ge1O16cZUrljncQV3BOuFr8WoqzTCHSApEMkRoiOSItEMkQqSGSI9ICkQyRGiI5Ii0QyRCpIZIj0gKRDJEaIjkiLRDJEKkhkiPSApEMkRoiOSItEMlsaaQ/X6b9GGeZcj8WJ9y/dDPtl6NI8d7QGXv7sZGwtxdvXJ2wtxeLE/Y/r93xKi+LOoz3vko43PBXehFpgUiGSA2RDJEMkQyRGiIZIhkiGSI1RDJEMkQyRGqIZIhkiGSI1BDJEMkQyRCpIZIhkiGSIVJDJEMkQySzpZH+epX209PYSLhx7UHatRuxOOHpUaRt80W3hXYjHDbW0f1up6+8m1nB+b7wfbLgVuWVfwWP+sL344Jn/QlaKqMlBS0paKmGlhS0pKAlBS3V0JKClhS0pKClGlpS0JKClhS0VENLClpS0JKClmpoSUFLClpS0FINLSloSUFLClqqoSUFLSloSUFLNbSkoCUFLSloqYaWFLSkoCUFLdXQkoKWFLSkoKUaWlLQkoKWFLRUQ0sKWlLQkoKWamhJMWtLXDtl4/m1UwrXiyq4zNdSSfuOR0sVtKSgJQUt1dCSgpYUtKSgpRpaUtCSgpYUtFRDSwpaUtCSgpZqaElBSwpaUtBSDS0paElBSwpaqqElBS0paElBSzW0pKAlBS0paKmGlhS0pKAlBS3V0JKClhS0pKClGlpS0JKClhS0VENLClpS0JKClmpoSUFLClpS0FINLSlmbYlrp2y8ea+dMpe5vpYObs/h6szf8eZCS3W0VENLClrS0FIdLdXQkoKWNLRUR0s1tKSgJQ0t1dFSDS0paElDS3W0VENLClrS0FIdLdXQkoKWNLRUR0s1tKSgJQ0t1dFSDS0paElDS3W0VENLClrS0FIdLdXQkoKWNLRUR0s1tKSgJQ0t1dFSDS0paElDS3W0VENLClrSbGFLXDtl48177ZS5rkN0+HAOh1wtSkBLClqqoSUFLSloSUFLNbSkoCUFLSloqYaWFLSkoCUFLdXQkoKWFLSkoKUaWlLQkoKWFLRUQ0sKWlLQkoKWamhJQUsKWlLQUg0tKWhJQUsKWqqhJQUtKWhJQUs1tKSgJQUtKWiphpYUtKSgJQUt1dCSgpYUtKSgpRpaUtCSYitb4topG++L7qim3Z15MKdmt+v+AdQZAoTNLx1oAAAAAElFTkSuQmCC;" vertex="1" parent="WIyWlLk6GJQsqaUBKTNV-1">
          <mxGeometry x="1210.57" y="660.41" width="98.18" height="79.54" as="geometry" />
        </mxCell>
        <mxCell id="c4rweKqOvg5NlRM6L5RU-33" value="&lt;b&gt;&lt;font style=&quot;font-size: 18px&quot;&gt;Edges Infomation Matrix&lt;/font&gt;&lt;/b&gt;" style="text;html=1;strokeColor=none;fillColor=none;align=center;verticalAlign=middle;whiteSpace=wrap;rounded=0;shadow=0;sketch=0;" vertex="1" parent="WIyWlLk6GJQsqaUBKTNV-1">
          <mxGeometry x="1160.8799999999999" y="625.9100000000001" width="231.5" height="20" as="geometry" />
        </mxCell>
        <mxCell id="c4rweKqOvg5NlRM6L5RU-37" style="rounded=1;sketch=0;orthogonalLoop=1;jettySize=auto;html=1;exitX=0.5;exitY=1;exitDx=0;exitDy=0;exitPerimeter=0;entryX=0;entryY=0.5;entryDx=0;entryDy=0;entryPerimeter=0;dashed=1;startArrow=none;startFill=0;endArrow=none;endFill=0;" edge="1" parent="WIyWlLk6GJQsqaUBKTNV-1" source="c4rweKqOvg5NlRM6L5RU-38" target="c4rweKqOvg5NlRM6L5RU-39">
          <mxGeometry relative="1" as="geometry" />
        </mxCell>
        <mxCell id="c4rweKqOvg5NlRM6L5RU-38" value="" style="shape=mxgraph.cisco.routers.netflow_router;html=1;pointerEvents=1;dashed=0;fillColor=#036897;strokeColor=#ffffff;strokeWidth=2;verticalLabelPosition=bottom;verticalAlign=top;align=center;outlineConnect=0;rounded=1;shadow=0;sketch=0;" vertex="1" parent="WIyWlLk6GJQsqaUBKTNV-1">
          <mxGeometry x="1459.5" y="630.1800000000001" width="37" height="30" as="geometry" />
        </mxCell>
        <mxCell id="c4rweKqOvg5NlRM6L5RU-39" value="" style="shape=mxgraph.cisco.routers.netflow_router;html=1;pointerEvents=1;dashed=0;fillColor=#036897;strokeColor=#ffffff;strokeWidth=2;verticalLabelPosition=bottom;verticalAlign=top;align=center;outlineConnect=0;rounded=1;shadow=0;sketch=0;" vertex="1" parent="WIyWlLk6GJQsqaUBKTNV-1">
          <mxGeometry x="1509.5" y="660.1800000000001" width="37" height="30" as="geometry" />
        </mxCell>
        <mxCell id="c4rweKqOvg5NlRM6L5RU-40" style="rounded=1;sketch=0;orthogonalLoop=1;jettySize=auto;html=1;exitX=0;exitY=0.5;exitDx=0;exitDy=0;exitPerimeter=0;entryX=1;entryY=0.5;entryDx=0;entryDy=0;entryPerimeter=0;dashed=1;startArrow=none;startFill=0;endArrow=none;endFill=0;" edge="1" parent="WIyWlLk6GJQsqaUBKTNV-1" source="c4rweKqOvg5NlRM6L5RU-41" target="c4rweKqOvg5NlRM6L5RU-39">
          <mxGeometry relative="1" as="geometry" />
        </mxCell>
        <mxCell id="c4rweKqOvg5NlRM6L5RU-41" value="" style="shape=mxgraph.cisco.routers.netflow_router;html=1;pointerEvents=1;dashed=0;fillColor=#036897;strokeColor=#ffffff;strokeWidth=2;verticalLabelPosition=bottom;verticalAlign=top;align=center;outlineConnect=0;rounded=1;shadow=0;sketch=0;" vertex="1" parent="WIyWlLk6GJQsqaUBKTNV-1">
          <mxGeometry x="1559.5" y="645.1800000000001" width="37" height="30" as="geometry" />
        </mxCell>
        <mxCell id="c4rweKqOvg5NlRM6L5RU-42" style="rounded=1;sketch=0;orthogonalLoop=1;jettySize=auto;html=1;exitX=1;exitY=0.5;exitDx=0;exitDy=0;exitPerimeter=0;entryX=0;entryY=0.5;entryDx=0;entryDy=0;entryPerimeter=0;dashed=1;startArrow=none;endArrow=none;startFill=0;endFill=0;" edge="1" parent="WIyWlLk6GJQsqaUBKTNV-1" source="c4rweKqOvg5NlRM6L5RU-44" target="c4rweKqOvg5NlRM6L5RU-49">
          <mxGeometry relative="1" as="geometry" />
        </mxCell>
        <mxCell id="c4rweKqOvg5NlRM6L5RU-43" style="rounded=1;sketch=0;orthogonalLoop=1;jettySize=auto;html=1;exitX=0;exitY=0.5;exitDx=0;exitDy=0;exitPerimeter=0;entryX=0.5;entryY=0;entryDx=0;entryDy=0;entryPerimeter=0;dashed=1;startArrow=none;startFill=0;endArrow=none;endFill=0;" edge="1" parent="WIyWlLk6GJQsqaUBKTNV-1" source="c4rweKqOvg5NlRM6L5RU-44" target="c4rweKqOvg5NlRM6L5RU-38">
          <mxGeometry relative="1" as="geometry" />
        </mxCell>
        <mxCell id="c4rweKqOvg5NlRM6L5RU-44" value="" style="shape=mxgraph.cisco.routers.netflow_router;html=1;pointerEvents=1;dashed=0;fillColor=#036897;strokeColor=#ffffff;strokeWidth=2;verticalLabelPosition=bottom;verticalAlign=top;align=center;outlineConnect=0;rounded=1;shadow=0;sketch=0;" vertex="1" parent="WIyWlLk6GJQsqaUBKTNV-1">
          <mxGeometry x="1496.5" y="585.9100000000001" width="37" height="30" as="geometry" />
        </mxCell>
        <mxCell id="c4rweKqOvg5NlRM6L5RU-45" style="rounded=1;sketch=0;orthogonalLoop=1;jettySize=auto;html=1;exitX=0.5;exitY=1;exitDx=0;exitDy=0;exitPerimeter=0;entryX=1;entryY=0.5;entryDx=0;entryDy=0;entryPerimeter=0;dashed=1;startArrow=none;startFill=0;endArrow=none;endFill=0;" edge="1" parent="WIyWlLk6GJQsqaUBKTNV-1" source="c4rweKqOvg5NlRM6L5RU-46" target="c4rweKqOvg5NlRM6L5RU-41">
          <mxGeometry relative="1" as="geometry" />
        </mxCell>
        <mxCell id="c4rweKqOvg5NlRM6L5RU-46" value="" style="shape=mxgraph.cisco.routers.netflow_router;html=1;pointerEvents=1;dashed=0;fillColor=#036897;strokeColor=#ffffff;strokeWidth=2;verticalLabelPosition=bottom;verticalAlign=top;align=center;outlineConnect=0;rounded=1;shadow=0;sketch=0;" vertex="1" parent="WIyWlLk6GJQsqaUBKTNV-1">
          <mxGeometry x="1596.5" y="620.1800000000001" width="37" height="30" as="geometry" />
        </mxCell>
        <mxCell id="c4rweKqOvg5NlRM6L5RU-47" style="rounded=1;sketch=0;orthogonalLoop=1;jettySize=auto;html=1;exitX=1;exitY=0.5;exitDx=0;exitDy=0;exitPerimeter=0;entryX=0.5;entryY=0;entryDx=0;entryDy=0;entryPerimeter=0;dashed=1;startArrow=none;startFill=0;endArrow=none;endFill=0;" edge="1" parent="WIyWlLk6GJQsqaUBKTNV-1" source="c4rweKqOvg5NlRM6L5RU-49" target="c4rweKqOvg5NlRM6L5RU-46">
          <mxGeometry relative="1" as="geometry" />
        </mxCell>
        <mxCell id="c4rweKqOvg5NlRM6L5RU-48" style="rounded=1;sketch=0;orthogonalLoop=1;jettySize=auto;html=1;exitX=0.5;exitY=1;exitDx=0;exitDy=0;exitPerimeter=0;dashed=1;startArrow=none;startFill=0;endArrow=none;endFill=0;" edge="1" parent="WIyWlLk6GJQsqaUBKTNV-1" source="c4rweKqOvg5NlRM6L5RU-49" target="c4rweKqOvg5NlRM6L5RU-41">
          <mxGeometry relative="1" as="geometry" />
        </mxCell>
        <mxCell id="c4rweKqOvg5NlRM6L5RU-49" value="" style="shape=mxgraph.cisco.routers.netflow_router;html=1;pointerEvents=1;dashed=0;fillColor=#036897;strokeColor=#ffffff;strokeWidth=2;verticalLabelPosition=bottom;verticalAlign=top;align=center;outlineConnect=0;rounded=1;shadow=0;sketch=0;" vertex="1" parent="WIyWlLk6GJQsqaUBKTNV-1">
          <mxGeometry x="1559.5" y="595.1800000000001" width="37" height="30" as="geometry" />
        </mxCell>
        <mxCell id="c4rweKqOvg5NlRM6L5RU-50" value="&lt;font size=&quot;1&quot;&gt;&lt;i&gt;&lt;b style=&quot;font-size: 29px&quot;&gt;Generated Topo&lt;/b&gt;&lt;/i&gt;&lt;/font&gt;" style="text;html=1;strokeColor=none;fillColor=none;align=center;verticalAlign=middle;whiteSpace=wrap;rounded=0;shadow=0;sketch=0;" vertex="1" parent="WIyWlLk6GJQsqaUBKTNV-1">
          <mxGeometry x="1440" y="468.91" width="229.5" height="31.09" as="geometry" />
        </mxCell>
        <mxCell id="c4rweKqOvg5NlRM6L5RU-55" value="" style="rounded=1;whiteSpace=wrap;html=1;fontSize=29;dashed=1;" vertex="1" parent="WIyWlLk6GJQsqaUBKTNV-1">
          <mxGeometry x="874.88" y="220" width="305.12" height="130" as="geometry" />
        </mxCell>
        <mxCell id="c4rweKqOvg5NlRM6L5RU-81" style="edgeStyle=orthogonalEdgeStyle;rounded=0;orthogonalLoop=1;jettySize=auto;html=1;exitX=1;exitY=0.5;exitDx=0;exitDy=0;entryX=0;entryY=0.5;entryDx=0;entryDy=0;fontSize=20;shape=flexArrow;" edge="1" parent="WIyWlLk6GJQsqaUBKTNV-1" source="c4rweKqOvg5NlRM6L5RU-59" target="c4rweKqOvg5NlRM6L5RU-73">
          <mxGeometry relative="1" as="geometry" />
        </mxCell>
        <mxCell id="c4rweKqOvg5NlRM6L5RU-59" value="" style="rounded=1;whiteSpace=wrap;html=1;fontSize=20;" vertex="1" parent="WIyWlLk6GJQsqaUBKTNV-1">
          <mxGeometry x="1440" y="210" width="80" height="80" as="geometry" />
        </mxCell>
        <mxCell id="c4rweKqOvg5NlRM6L5RU-61" value="" style="endArrow=none;html=1;rounded=0;fontSize=20;exitX=0;exitY=0.5;exitDx=0;exitDy=0;entryX=1;entryY=0.5;entryDx=0;entryDy=0;" edge="1" parent="WIyWlLk6GJQsqaUBKTNV-1" source="c4rweKqOvg5NlRM6L5RU-59" target="c4rweKqOvg5NlRM6L5RU-59">
          <mxGeometry width="50" height="50" relative="1" as="geometry">
            <mxPoint x="1450" y="300" as="sourcePoint" />
            <mxPoint x="1500" y="250" as="targetPoint" />
          </mxGeometry>
        </mxCell>
        <mxCell id="c4rweKqOvg5NlRM6L5RU-62" value="VNF1" style="text;html=1;strokeColor=none;fillColor=none;align=center;verticalAlign=middle;whiteSpace=wrap;rounded=0;fontSize=20;" vertex="1" parent="WIyWlLk6GJQsqaUBKTNV-1">
          <mxGeometry x="1450" y="220" width="60" height="30" as="geometry" />
        </mxCell>
        <mxCell id="c4rweKqOvg5NlRM6L5RU-64" value="" style="shape=image;html=1;verticalAlign=top;verticalLabelPosition=bottom;labelBackgroundColor=#ffffff;imageAspect=0;aspect=fixed;image=https://cdn1.iconfinder.com/data/icons/32-soft-media-icons--Vol-1/32/config.png;fontSize=20;" vertex="1" parent="WIyWlLk6GJQsqaUBKTNV-1">
          <mxGeometry x="1464" y="255" width="32" height="32" as="geometry" />
        </mxCell>
        <mxCell id="c4rweKqOvg5NlRM6L5RU-82" style="edgeStyle=orthogonalEdgeStyle;rounded=0;orthogonalLoop=1;jettySize=auto;html=1;exitX=1;exitY=0.5;exitDx=0;exitDy=0;entryX=0;entryY=0.5;entryDx=0;entryDy=0;fontSize=20;shape=flexArrow;" edge="1" parent="WIyWlLk6GJQsqaUBKTNV-1" source="c4rweKqOvg5NlRM6L5RU-73" target="c4rweKqOvg5NlRM6L5RU-77">
          <mxGeometry relative="1" as="geometry" />
        </mxCell>
        <mxCell id="c4rweKqOvg5NlRM6L5RU-73" value="" style="rounded=1;whiteSpace=wrap;html=1;fontSize=20;" vertex="1" parent="WIyWlLk6GJQsqaUBKTNV-1">
          <mxGeometry x="1590" y="210" width="80" height="80" as="geometry" />
        </mxCell>
        <mxCell id="c4rweKqOvg5NlRM6L5RU-74" value="" style="endArrow=none;html=1;rounded=0;fontSize=20;exitX=0;exitY=0.5;exitDx=0;exitDy=0;entryX=1;entryY=0.5;entryDx=0;entryDy=0;" edge="1" parent="WIyWlLk6GJQsqaUBKTNV-1" source="c4rweKqOvg5NlRM6L5RU-73" target="c4rweKqOvg5NlRM6L5RU-73">
          <mxGeometry width="50" height="50" relative="1" as="geometry">
            <mxPoint x="1600" y="300" as="sourcePoint" />
            <mxPoint x="1650" y="250" as="targetPoint" />
          </mxGeometry>
        </mxCell>
        <mxCell id="c4rweKqOvg5NlRM6L5RU-75" value="VNF2" style="text;html=1;strokeColor=none;fillColor=none;align=center;verticalAlign=middle;whiteSpace=wrap;rounded=0;fontSize=20;" vertex="1" parent="WIyWlLk6GJQsqaUBKTNV-1">
          <mxGeometry x="1600" y="220" width="60" height="30" as="geometry" />
        </mxCell>
        <mxCell id="c4rweKqOvg5NlRM6L5RU-76" value="" style="shape=image;html=1;verticalAlign=top;verticalLabelPosition=bottom;labelBackgroundColor=#ffffff;imageAspect=0;aspect=fixed;image=https://cdn1.iconfinder.com/data/icons/32-soft-media-icons--Vol-1/32/config.png;fontSize=20;" vertex="1" parent="WIyWlLk6GJQsqaUBKTNV-1">
          <mxGeometry x="1614" y="255" width="32" height="32" as="geometry" />
        </mxCell>
        <mxCell id="c4rweKqOvg5NlRM6L5RU-86" style="edgeStyle=orthogonalEdgeStyle;shape=flexArrow;rounded=0;orthogonalLoop=1;jettySize=auto;html=1;exitX=1;exitY=0.5;exitDx=0;exitDy=0;entryX=0;entryY=0.5;entryDx=0;entryDy=0;fontSize=20;" edge="1" parent="WIyWlLk6GJQsqaUBKTNV-1" source="c4rweKqOvg5NlRM6L5RU-77" target="c4rweKqOvg5NlRM6L5RU-85">
          <mxGeometry relative="1" as="geometry" />
        </mxCell>
        <mxCell id="c4rweKqOvg5NlRM6L5RU-77" value="" style="rounded=1;whiteSpace=wrap;html=1;fontSize=20;" vertex="1" parent="WIyWlLk6GJQsqaUBKTNV-1">
          <mxGeometry x="1730" y="210" width="80" height="80" as="geometry" />
        </mxCell>
        <mxCell id="c4rweKqOvg5NlRM6L5RU-78" value="" style="endArrow=none;html=1;rounded=0;fontSize=20;exitX=0;exitY=0.5;exitDx=0;exitDy=0;entryX=1;entryY=0.5;entryDx=0;entryDy=0;" edge="1" parent="WIyWlLk6GJQsqaUBKTNV-1" source="c4rweKqOvg5NlRM6L5RU-77" target="c4rweKqOvg5NlRM6L5RU-77">
          <mxGeometry width="50" height="50" relative="1" as="geometry">
            <mxPoint x="1740" y="300" as="sourcePoint" />
            <mxPoint x="1790" y="250" as="targetPoint" />
          </mxGeometry>
        </mxCell>
        <mxCell id="c4rweKqOvg5NlRM6L5RU-79" value="VNF3" style="text;html=1;strokeColor=none;fillColor=none;align=center;verticalAlign=middle;whiteSpace=wrap;rounded=0;fontSize=20;" vertex="1" parent="WIyWlLk6GJQsqaUBKTNV-1">
          <mxGeometry x="1740" y="220" width="60" height="30" as="geometry" />
        </mxCell>
        <mxCell id="c4rweKqOvg5NlRM6L5RU-80" value="" style="shape=image;html=1;verticalAlign=top;verticalLabelPosition=bottom;labelBackgroundColor=#ffffff;imageAspect=0;aspect=fixed;image=https://cdn1.iconfinder.com/data/icons/32-soft-media-icons--Vol-1/32/config.png;fontSize=20;" vertex="1" parent="WIyWlLk6GJQsqaUBKTNV-1">
          <mxGeometry x="1754" y="255" width="32" height="32" as="geometry" />
        </mxCell>
        <mxCell id="c4rweKqOvg5NlRM6L5RU-84" style="edgeStyle=orthogonalEdgeStyle;shape=flexArrow;rounded=0;orthogonalLoop=1;jettySize=auto;html=1;exitX=1;exitY=0.5;exitDx=0;exitDy=0;fontSize=20;" edge="1" parent="WIyWlLk6GJQsqaUBKTNV-1" source="c4rweKqOvg5NlRM6L5RU-83">
          <mxGeometry relative="1" as="geometry">
            <mxPoint x="1440" y="250" as="targetPoint" />
          </mxGeometry>
        </mxCell>
        <mxCell id="c4rweKqOvg5NlRM6L5RU-83" value="Source" style="rounded=1;whiteSpace=wrap;html=1;fontSize=20;" vertex="1" parent="WIyWlLk6GJQsqaUBKTNV-1">
          <mxGeometry x="1290" y="228.5" width="106" height="41.5" as="geometry" />
        </mxCell>
        <mxCell id="c4rweKqOvg5NlRM6L5RU-85" value="Destination" style="rounded=1;whiteSpace=wrap;html=1;fontSize=20;" vertex="1" parent="WIyWlLk6GJQsqaUBKTNV-1">
          <mxGeometry x="1850" y="228.5" width="110" height="41.5" as="geometry" />
        </mxCell>
      </root>
    </mxGraphModel>
  </diagram>
</mxfile>
